<?xml version="1.0" encoding="UTF-8" standalone="no"?>
<!DOCTYPE svg PUBLIC "-//W3C//DTD SVG 1.1//EN"
 "http://www.w3.org/Graphics/SVG/1.1/DTD/svg11.dtd">
<!-- Generated by graphviz version 12.1.1 (20240910.0053)
 -->
<!-- Title: INFRA Pages: 1 -->
<svg width="896pt" height="296pt"
 viewBox="0.00 0.00 895.61 296.00" xmlns="http://www.w3.org/2000/svg" xmlns:xlink="http://www.w3.org/1999/xlink">
<g id="graph0" class="graph" transform="scale(1 1) rotate(0) translate(4 292)">
<title>INFRA</title>
<polygon fill="white" stroke="none" points="-4,4 -4,-292 891.61,-292 891.61,4 -4,4"/>
<!-- ProductsApi -->
<g id="node1" class="node">
<title>ProductsApi</title>
<path fill="#e78f81" stroke="black" stroke-width="2" d="M251.21,-288C251.21,-288 174.4,-288 174.4,-288 168.4,-288 162.4,-282 162.4,-276 162.4,-276 162.4,-228 162.4,-228 162.4,-222 168.4,-216 174.4,-216 174.4,-216 251.21,-216 251.21,-216 257.21,-216 263.21,-222 263.21,-228 263.21,-228 263.21,-276 263.21,-276 263.21,-282 257.21,-288 251.21,-288"/>
<text text-anchor="middle" x="212.81" y="-256.2" font-family="Arial" font-size="14.00">ProductsApi</text>
<text text-anchor="middle" x="212.81" y="-239.4" font-family="Arial" font-size="14.00">(ApiGateway)</text>
</g>
<!-- GetProductsList -->
<g id="node2" class="node">
<title>GetProductsList</title>
<path fill="#b7e0ff" stroke="black" stroke-width="2" d="M265.61,-180C265.61,-180 160,-180 160,-180 154,-180 148,-174 148,-168 148,-168 148,-120 148,-120 148,-114 154,-108 160,-108 160,-108 265.61,-108 265.61,-108 271.61,-108 277.61,-114 277.61,-120 277.61,-120 277.61,-168 277.61,-168 277.61,-174 271.61,-180 265.61,-180"/>
<text text-anchor="middle" x="212.81" y="-148.2" font-family="Arial" font-size="14.00">GetProductsList</text>
<text text-anchor="middle" x="212.81" y="-131.4" font-family="Arial" font-size="14.00">(LambdaFunction)</text>
</g>
<!-- ProductsApi&#45;&gt;GetProductsList -->
<g id="edge1" class="edge">
<title>ProductsApi&#45;&gt;GetProductsList</title>
<path fill="none" stroke="black" d="M212.81,-215.7C212.81,-207.93 212.81,-199.57 212.81,-191.43"/>
<polygon fill="black" stroke="black" points="216.31,-191.66 212.81,-181.66 209.31,-191.66 216.31,-191.66"/>
</g>
<!-- GetProductsById -->
<g id="node3" class="node">
<title>GetProductsById</title>
<path fill="#b7e0ff" stroke="black" stroke-width="2" d="M117.61,-180C117.61,-180 12,-180 12,-180 6,-180 0,-174 0,-168 0,-168 0,-120 0,-120 0,-114 6,-108 12,-108 12,-108 117.61,-108 117.61,-108 123.61,-108 129.61,-114 129.61,-120 129.61,-120 129.61,-168 129.61,-168 129.61,-174 123.61,-180 117.61,-180"/>
<text text-anchor="middle" x="64.81" y="-148.2" font-family="Arial" font-size="14.00">GetProductsById</text>
<text text-anchor="middle" x="64.81" y="-131.4" font-family="Arial" font-size="14.00">(LambdaFunction)</text>
</g>
<!-- ProductsApi&#45;&gt;GetProductsById -->
<g id="edge2" class="edge">
<title>ProductsApi&#45;&gt;GetProductsById</title>
<path fill="none" stroke="black" d="M163.52,-215.7C150.61,-206.46 136.56,-196.39 123.22,-186.84"/>
<polygon fill="black" stroke="black" points="125.52,-184.18 115.36,-181.2 121.45,-189.87 125.52,-184.18"/>
</g>
<!-- CreateProduct -->
<g id="node4" class="node">
<title>CreateProduct</title>
<path fill="#b7e0ff" stroke="black" stroke-width="2" d="M575.61,-180C575.61,-180 470,-180 470,-180 464,-180 458,-174 458,-168 458,-168 458,-120 458,-120 458,-114 464,-108 470,-108 470,-108 575.61,-108 575.61,-108 581.61,-108 587.61,-114 587.61,-120 587.61,-120 587.61,-168 587.61,-168 587.61,-174 581.61,-180 575.61,-180"/>
<text text-anchor="middle" x="522.81" y="-148.2" font-family="Arial" font-size="14.00">CreateProduct</text>
<text text-anchor="middle" x="522.81" y="-131.4" font-family="Arial" font-size="14.00">(LambdaFunction)</text>
</g>
<!-- ProductsApi&#45;&gt;CreateProduct -->
<g id="edge3" class="edge">
<title>ProductsApi&#45;&gt;CreateProduct</title>
<path fill="none" stroke="black" d="M263.26,-238.17C309.19,-225.97 378.89,-206.16 447.17,-180.46"/>
<polygon fill="black" stroke="black" points="448.16,-183.83 456.25,-177 445.66,-177.29 448.16,-183.83"/>
</g>
<!-- ImportedProductsTable -->
<g id="node5" class="node">
<title>ImportedProductsTable</title>
<path fill="#ffcfb3" stroke="black" stroke-width="2" d="M448.56,-65.45C448.56,-69.07 412.37,-72 367.81,-72 323.25,-72 287.05,-69.07 287.05,-65.45 287.05,-65.45 287.05,-6.55 287.05,-6.55 287.05,-2.93 323.25,0 367.81,0 412.37,0 448.56,-2.93 448.56,-6.55 448.56,-6.55 448.56,-65.45 448.56,-65.45"/>
<path fill="none" stroke="black" stroke-width="2" d="M448.56,-65.45C448.56,-61.84 412.37,-58.91 367.81,-58.91 323.25,-58.91 287.05,-61.84 287.05,-65.45"/>
<text text-anchor="middle" x="367.81" y="-40.2" font-family="Arial" font-size="14.00">ImportedProductsTable</text>
<text text-anchor="middle" x="367.81" y="-23.4" font-family="Arial" font-size="14.00">(DynamoDBTable)</text>
</g>
<!-- GetProductsList&#45;&gt;ImportedProductsTable -->
<g id="edge4" class="edge">
<title>GetProductsList&#45;&gt;ImportedProductsTable</title>
<path fill="none" stroke="black" d="M264.42,-107.7C278.22,-98.27 293.25,-87.99 307.48,-78.26"/>
<polygon fill="black" stroke="black" points="309.16,-81.35 315.43,-72.82 305.2,-75.57 309.16,-81.35"/>
</g>
<!-- ImportedStocksTable -->
<g id="node6" class="node">
<title>ImportedStocksTable</title>
<path fill="#ffcfb3" stroke="black" stroke-width="2" d="M268.95,-65.45C268.95,-69.07 235.72,-72 194.81,-72 153.9,-72 120.67,-69.07 120.67,-65.45 120.67,-65.45 120.67,-6.55 120.67,-6.55 120.67,-2.93 153.9,0 194.81,0 235.72,0 268.95,-2.93 268.95,-6.55 268.95,-6.55 268.95,-65.45 268.95,-65.45"/>
<path fill="none" stroke="black" stroke-width="2" d="M268.95,-65.45C268.95,-61.84 235.72,-58.91 194.81,-58.91 153.9,-58.91 120.67,-61.84 120.67,-65.45"/>
<text text-anchor="middle" x="194.81" y="-40.2" font-family="Arial" font-size="14.00">ImportedStocksTable</text>
<text text-anchor="middle" x="194.81" y="-23.4" font-family="Arial" font-size="14.00">(DynamoDBTable)</text>
</g>
<!-- GetProductsList&#45;&gt;ImportedStocksTable -->
<g id="edge5" class="edge">
<title>GetProductsList&#45;&gt;ImportedStocksTable</title>
<path fill="none" stroke="black" d="M206.81,-107.7C205.49,-99.93 204.07,-91.57 202.69,-83.43"/>
<polygon fill="black" stroke="black" points="206.15,-82.91 201.03,-73.63 199.25,-84.08 206.15,-82.91"/>
</g>
<!-- GetProductsById&#45;&gt;ImportedProductsTable -->
<g id="edge6" class="edge">
<title>GetProductsById&#45;&gt;ImportedProductsTable</title>
<path fill="none" stroke="black" d="M129.89,-111.4C132.89,-110.21 135.87,-109.07 138.81,-108 195.64,-87.41 215.03,-91.11 276.37,-72.29"/>
<polygon fill="black" stroke="black" points="277.09,-75.74 285.57,-69.39 274.98,-69.06 277.09,-75.74"/>
</g>
<!-- GetProductsById&#45;&gt;ImportedStocksTable -->
<g id="edge7" class="edge">
<title>GetProductsById&#45;&gt;ImportedStocksTable</title>
<path fill="none" stroke="black" d="M108.09,-107.7C119.28,-98.59 131.43,-88.68 143,-79.24"/>
<polygon fill="black" stroke="black" points="145,-82.13 150.53,-73.1 140.57,-76.71 145,-82.13"/>
</g>
<!-- CreateProduct&#45;&gt;ImportedProductsTable -->
<g id="edge8" class="edge">
<title>CreateProduct&#45;&gt;ImportedProductsTable</title>
<path fill="none" stroke="black" d="M471.19,-107.7C457.4,-98.27 442.36,-87.99 428.14,-78.26"/>
<polygon fill="black" stroke="black" points="430.41,-75.57 420.18,-72.82 426.46,-81.35 430.41,-75.57"/>
</g>
<!-- SeedTablesFunction -->
<g id="node7" class="node">
<title>SeedTablesFunction</title>
<path fill="#b7e0ff" stroke="black" stroke-width="2" d="M428.01,-180C428.01,-180 307.6,-180 307.6,-180 301.6,-180 295.6,-174 295.6,-168 295.6,-168 295.6,-120 295.6,-120 295.6,-114 301.6,-108 307.6,-108 307.6,-108 428.01,-108 428.01,-108 434.01,-108 440.01,-114 440.01,-120 440.01,-120 440.01,-168 440.01,-168 440.01,-174 434.01,-180 428.01,-180"/>
<text text-anchor="middle" x="367.81" y="-148.2" font-family="Arial" font-size="14.00">SeedTablesFunction</text>
<text text-anchor="middle" x="367.81" y="-131.4" font-family="Arial" font-size="14.00">(LambdaFunction)</text>
</g>
<!-- SeedTablesFunction&#45;&gt;ImportedProductsTable -->
<g id="edge9" class="edge">
<title>SeedTablesFunction&#45;&gt;ImportedProductsTable</title>
<path fill="none" stroke="black" d="M367.81,-107.7C367.81,-99.93 367.81,-91.57 367.81,-83.43"/>
<polygon fill="black" stroke="black" points="371.31,-83.66 367.81,-73.66 364.31,-83.66 371.31,-83.66"/>
</g>
<!-- SeedTablesFunction&#45;&gt;ImportedStocksTable -->
<g id="edge10" class="edge">
<title>SeedTablesFunction&#45;&gt;ImportedStocksTable</title>
<path fill="none" stroke="black" d="M310.2,-107.7C294.1,-97.84 276.48,-87.04 259.97,-76.93"/>
<polygon fill="black" stroke="black" points="262.05,-74.09 251.69,-71.85 258.39,-80.06 262.05,-74.09"/>
</g>
<!-- ImportApi -->
<g id="node8" class="node">
<title>ImportApi</title>
<path fill="#e78f81" stroke="black" stroke-width="2" d="M711.21,-288C711.21,-288 634.4,-288 634.4,-288 628.4,-288 622.4,-282 622.4,-276 622.4,-276 622.4,-228 622.4,-228 622.4,-222 628.4,-216 634.4,-216 634.4,-216 711.21,-216 711.21,-216 717.21,-216 723.21,-222 723.21,-228 723.21,-228 723.21,-276 723.21,-276 723.21,-282 717.21,-288 711.21,-288"/>
<text text-anchor="middle" x="672.81" y="-256.2" font-family="Arial" font-size="14.00">ImportApi</text>
<text text-anchor="middle" x="672.81" y="-239.4" font-family="Arial" font-size="14.00">(ApiGateway)</text>
</g>
<!-- ImportProductsFile -->
<g id="node9" class="node">
<title>ImportProductsFile</title>
<path fill="#b7e0ff" stroke="black" stroke-width="2" d="M727.55,-180C727.55,-180 618.07,-180 618.07,-180 612.07,-180 606.07,-174 606.07,-168 606.07,-168 606.07,-120 606.07,-120 606.07,-114 612.07,-108 618.07,-108 618.07,-108 727.55,-108 727.55,-108 733.55,-108 739.55,-114 739.55,-120 739.55,-120 739.55,-168 739.55,-168 739.55,-174 733.55,-180 727.55,-180"/>
<text text-anchor="middle" x="672.81" y="-148.2" font-family="Arial" font-size="14.00">ImportProductsFile</text>
<text text-anchor="middle" x="672.81" y="-131.4" font-family="Arial" font-size="14.00">(LambdaFunction)</text>
</g>
<!-- ImportApi&#45;&gt;ImportProductsFile -->
<g id="edge11" class="edge">
<title>ImportApi&#45;&gt;ImportProductsFile</title>
<path fill="none" stroke="black" d="M672.81,-215.7C672.81,-207.93 672.81,-199.57 672.81,-191.43"/>
<polygon fill="black" stroke="black" points="676.31,-191.66 672.81,-181.66 669.31,-191.66 676.31,-191.66"/>
</g>
<!-- ImportBucket -->
<g id="node11" class="node">
<title>ImportBucket</title>
<path fill="#fff5cd" stroke="black" stroke-width="2" d="M797.04,-65.45C797.04,-69.07 774.98,-72 747.81,-72 720.64,-72 698.57,-69.07 698.57,-65.45 698.57,-65.45 698.57,-6.55 698.57,-6.55 698.57,-2.93 720.64,0 747.81,0 774.98,0 797.04,-2.93 797.04,-6.55 797.04,-6.55 797.04,-65.45 797.04,-65.45"/>
<path fill="none" stroke="black" stroke-width="2" d="M797.04,-65.45C797.04,-61.84 774.98,-58.91 747.81,-58.91 720.64,-58.91 698.57,-61.84 698.57,-65.45"/>
<text text-anchor="middle" x="747.81" y="-40.2" font-family="Arial" font-size="14.00">ImportBucket</text>
<text text-anchor="middle" x="747.81" y="-23.4" font-family="Arial" font-size="14.00">(S3Bucket)</text>
</g>
<!-- ImportProductsFile&#45;&gt;ImportBucket -->
<g id="edge12" class="edge">
<title>ImportProductsFile&#45;&gt;ImportBucket</title>
<path fill="none" stroke="black" d="M697.78,-107.7C703.73,-99.3 710.15,-90.23 716.34,-81.47"/>
<polygon fill="black" stroke="black" points="719.15,-83.56 722.07,-73.38 713.43,-79.52 719.15,-83.56"/>
</g>
<!-- ImportFileParser -->
<g id="node10" class="node">
<title>ImportFileParser</title>
<path fill="#b7e0ff" stroke="black" stroke-width="2" d="M875.61,-180C875.61,-180 770,-180 770,-180 764,-180 758,-174 758,-168 758,-168 758,-120 758,-120 758,-114 764,-108 770,-108 770,-108 875.61,-108 875.61,-108 881.61,-108 887.61,-114 887.61,-120 887.61,-120 887.61,-168 887.61,-168 887.61,-174 881.61,-180 875.61,-180"/>
<text text-anchor="middle" x="822.81" y="-148.2" font-family="Arial" font-size="14.00">ImportFileParser</text>
<text text-anchor="middle" x="822.81" y="-131.4" font-family="Arial" font-size="14.00">(LambdaFunction)</text>
</g>
<!-- ImportFileParser&#45;&gt;ImportBucket -->
<g id="edge13" class="edge">
<title>ImportFileParser&#45;&gt;ImportBucket</title>
<path fill="none" stroke="black" d="M797.83,-107.7C791.89,-99.3 785.47,-90.23 779.27,-81.47"/>
<polygon fill="black" stroke="black" points="782.18,-79.52 773.55,-73.38 776.46,-83.56 782.18,-79.52"/>
</g>
</g>
</svg>
